<?xml version="1.0" standalone="no"?>
<!DOCTYPE svg PUBLIC "-//W3C//DTD SVG 20010904//EN"
 "http://www.w3.org/TR/2001/REC-SVG-20010904/DTD/svg10.dtd">
<svg version="1.0" xmlns="http://www.w3.org/2000/svg"
 width="260.000000pt" height="260.000000pt" viewBox="0 0 260.000000 260.000000"
 preserveAspectRatio="xMidYMid meet">
<metadata>
Created by potrace 1.11, written by Peter Selinger 2001-2013
</metadata>
<g transform="translate(0.000000,260.000000) scale(0.100000,-0.100000)"
fill="#000000" stroke="none">
<path d="M445 2479 c-4 -6 -5 -12 -2 -15 2 -3 7 2 10 11 7 17 1 20 -8 4z"/>
<path d="M2185 2480 c-11 -17 6 -31 28 -24 18 5 20 4 9 -7 -7 -8 -18 -14 -24
-14 -6 0 -12 -6 -14 -13 -1 -7 0 -8 3 -2 3 7 10 7 21 -2 10 -8 13 -9 9 -1 -4
6 -3 14 3 18 5 3 10 1 10 -5 0 -6 4 -9 9 -6 11 7 23 -22 15 -35 -3 -5 0 -9 7
-9 7 0 10 -3 6 -6 -3 -3 -14 -1 -24 5 -10 6 -12 11 -5 11 6 0 12 4 12 9 0 5
-13 9 -30 9 -17 -1 -27 -5 -23 -11 3 -6 1 -7 -6 -3 -6 4 -14 0 -17 -9 -6 -14
-8 -14 -21 2 -13 17 -14 16 -7 -6 4 -18 3 -22 -7 -16 -9 6 -11 3 -6 -9 4 -10
3 -15 -4 -11 -5 4 -7 16 -3 28 5 17 3 19 -6 11 -6 -6 -12 -26 -12 -43 -1 -21
-4 -28 -9 -19 -5 7 -6 22 -3 32 5 16 4 17 -9 5 -8 -8 -13 -17 -10 -21 2 -5 -1
-8 -7 -8 -6 0 -8 -5 -4 -11 4 -7 1 -10 -7 -7 -8 3 -14 10 -14 16 0 5 -4 14 -9
19 -5 4 -6 3 -2 -4 3 -6 1 -15 -5 -19 -9 -5 -7 -11 6 -21 16 -11 16 -13 3 -13
-9 0 -18 -5 -20 -12 -3 -7 -7 -5 -11 6 -4 10 -3 15 3 11 5 -3 7 1 4 9 -5 12
-10 10 -28 -9 -13 -14 -27 -21 -31 -17 -5 4 -5 1 -1 -6 7 -11 11 -10 25 2 15
14 18 14 18 1 0 -8 -4 -12 -9 -9 -5 4 -12 -4 -15 -16 -4 -16 -8 -18 -14 -8 -5
7 -17 14 -28 14 -11 1 -18 -2 -15 -7 2 -4 11 -6 19 -3 15 6 15 -20 0 -33 -4
-4 -6 -3 -2 3 3 5 -7 15 -23 21 -23 9 -27 8 -26 -5 4 -23 -29 -56 -46 -46 -10
6 -11 5 -1 -7 10 -13 7 -14 -22 -11 -20 2 -35 0 -35 -6 0 -6 12 -9 28 -6 26 5
26 4 7 -10 -13 -9 -25 -11 -37 -5 -22 12 -28 11 -28 -2 0 -5 4 -8 9 -4 5 3 13
0 17 -6 4 -7 3 -9 -4 -5 -6 3 -13 -3 -17 -14 -4 -11 -10 -18 -14 -16 -4 3 -13
1 -21 -4 -9 -5 -19 -5 -27 1 -15 13 -34 3 -27 -14 2 -7 -3 -21 -13 -29 -19
-17 -21 -18 -53 -18 -11 0 -20 -4 -20 -10 0 -5 8 -6 18 -3 16 6 16 5 -1 -11
-15 -15 -21 -16 -30 -6 -9 10 -9 11 0 6 9 -5 11 -2 6 10 -4 11 -8 13 -11 6 -2
-7 -7 -10 -12 -7 -4 3 -6 -3 -3 -13 4 -19 -3 -22 -52 -23 -16 0 -17 -2 -5 -9
8 -5 11 -10 7 -10 -4 0 -3 -10 3 -22 10 -21 10 -21 -3 -5 -8 9 -20 17 -26 17
-7 0 -9 5 -5 12 4 7 3 8 -4 4 -6 -4 -9 -13 -6 -21 4 -8 11 -12 18 -8 7 4 7 1
-1 -9 -7 -8 -10 -19 -6 -24 4 -5 2 -4 -6 3 -7 6 -20 9 -29 6 -10 -4 -13 -2 -8
5 3 6 2 13 -3 16 -5 4 -8 -5 -7 -19 5 -39 -26 -54 -63 -31 -10 7 -12 6 -6 -4
6 -10 4 -12 -7 -7 -19 7 -38 -11 -31 -29 3 -8 0 -14 -6 -14 -6 0 -11 6 -11 14
0 19 -25 27 -39 13 -8 -8 -8 -1 -1 24 10 35 7 33 -27 -18 -11 -15 -11 -13 -3
10 14 39 13 42 -7 26 -14 -12 -16 -12 -8 0 6 11 4 13 -7 8 -19 -7 -61 20 -53
34 4 5 2 9 -4 9 -6 0 -9 6 -7 13 1 6 1 9 -2 4 -2 -4 -13 -12 -25 -19 -22 -11
-22 -11 -4 10 18 20 18 21 -5 33 -13 7 -29 12 -37 10 -7 -1 -11 2 -8 6 3 5 2
15 -4 23 -6 10 -9 11 -9 3 0 -7 -5 -13 -11 -13 -5 0 -7 6 -3 13 5 8 3 8 -9 -2
-14 -11 -18 -11 -23 4 -5 13 -9 14 -15 3 -5 -8 -7 0 -4 20 2 18 0 30 -5 27 -4
-3 -10 0 -12 7 -3 7 -7 5 -11 -6 -4 -9 -3 -15 2 -11 5 3 12 2 15 -3 2 -4 -4
-9 -15 -9 -16 -1 -18 3 -14 25 l4 27 -20 -25 -19 -25 10 29 c6 16 8 31 5 34
-3 3 -5 -1 -5 -8 0 -9 -5 -7 -15 6 -8 10 -15 15 -15 9 0 -5 -7 1 -14 14 -11
20 -14 21 -19 7 -4 -10 -3 -15 2 -12 10 6 25 -24 16 -32 -3 -3 -5 0 -5 6 0 7
-5 12 -11 12 -5 0 -8 -4 -5 -8 3 -5 -2 -9 -10 -9 -9 0 -11 4 -5 10 5 5 7 16 4
23 -3 8 0 21 7 29 9 10 9 15 1 15 -6 0 -11 -5 -11 -12 0 -6 -9 -3 -20 7 -11
10 -20 15 -20 10 0 -4 -8 -1 -17 6 -11 10 -14 10 -9 2 4 -8 2 -13 -5 -13 -6 0
-9 8 -6 20 3 11 0 18 -7 17 -6 -1 -10 5 -8 13 2 8 0 12 -4 8 -4 -4 -14 -2 -22
5 -11 8 -14 8 -9 0 4 -6 3 -14 -3 -18 -5 -3 -10 1 -10 10 0 9 -4 14 -9 11 -10
-7 -24 22 -16 34 3 5 1 11 -3 14 -5 3 -9 -6 -8 -21 0 -14 -5 -27 -12 -29 -7
-1 -8 0 -2 3 7 3 4 11 -7 20 -10 8 -13 12 -7 9 6 -3 11 1 11 9 0 8 -4 12 -8 9
-4 -2 -11 0 -14 6 -4 6 -15 8 -26 5 -13 -4 -19 -2 -19 9 0 9 -5 16 -11 16 -5
0 -8 -4 -4 -9 3 -5 0 -13 -6 -17 -8 -4 -9 -3 -5 4 4 7 2 12 -5 12 -8 0 -8 4 1
15 7 8 17 12 23 8 6 -3 7 -1 3 6 -4 6 -11 9 -16 6 -5 -3 -15 4 -23 15 -12 18
-15 18 -20 5 -4 -8 -13 -15 -22 -15 -18 0 -20 16 -3 26 7 5 8 3 3 -6 -5 -9 -4
-11 3 -6 14 9 16 26 3 26 -5 0 -17 -7 -25 -16 -15 -14 -16 -14 -16 0 0 9 5 16
12 16 6 0 3 7 -8 15 -16 13 -16 14 -2 9 11 -4 18 -1 18 6 0 6 -4 9 -9 5 -6 -3
-18 3 -28 14 -14 15 -22 17 -33 10 -12 -9 -12 -10 3 -5 12 4 17 2 14 -6 -2 -7
-10 -12 -16 -10 -15 3 -14 -15 2 -21 9 -4 9 -6 0 -6 -7 -1 -13 -6 -13 -12 0
-8 5 -8 15 1 8 7 13 16 10 20 -3 5 -1 11 5 15 9 6 14 -8 11 -28 -1 -5 4 -5 10
-1 8 4 9 3 5 -4 -4 -6 -14 -8 -24 -5 -15 6 -16 5 -2 -13 13 -17 13 -18 0 -7
-20 15 -37 4 -35 -24 1 -14 -3 -19 -12 -16 -7 3 -10 9 -7 14 3 5 1 9 -4 9 -5
0 -12 -9 -15 -19 -5 -22 24 -55 39 -44 5 5 0 -3 -11 -17 -11 -14 -26 -29 -33
-33 -7 -5 -10 -12 -7 -18 4 -5 2 -9 -4 -9 -5 0 -8 -9 -6 -20 2 -11 -3 -24 -12
-28 -13 -8 -13 -10 1 -15 11 -5 15 -3 10 5 -4 6 -3 8 2 5 6 -3 11 5 12 19 3
47 5 52 20 47 10 -4 11 -8 2 -13 -7 -4 -10 -12 -6 -18 3 -6 2 -13 -4 -17 -6
-4 -8 -10 -5 -15 3 -5 0 -12 -6 -16 -8 -4 -7 -9 2 -16 9 -5 4 -6 -14 -2 -24 6
-27 4 -23 -17 3 -13 5 -28 5 -32 1 -5 6 -5 13 -1 7 4 8 3 4 -5 -4 -6 -11 -9
-16 -6 -4 3 -13 -1 -19 -9 -9 -11 -6 -13 15 -10 14 1 23 -1 19 -4 -4 -4 -12
-7 -18 -7 -7 0 -11 -9 -10 -19 1 -13 -4 -16 -19 -13 -15 4 -17 3 -8 -8 6 -8
19 -11 28 -9 14 5 14 4 -1 -6 -14 -9 -22 -9 -35 2 -15 11 -16 11 -4 -3 7 -9
12 -21 11 -25 -4 -24 3 -32 22 -29 12 3 19 1 15 -2 -4 -4 -16 -8 -28 -10 -30
-5 -34 -11 -18 -26 10 -9 11 -9 6 0 -5 9 -2 11 10 6 11 -4 13 -8 6 -11 -7 -2
-9 -8 -6 -14 4 -5 -4 -5 -16 2 -18 10 -21 9 -15 -1 6 -9 3 -11 -8 -6 -24 9
-21 0 4 -14 17 -9 20 -8 14 2 -5 8 -4 10 4 5 7 -5 9 -12 3 -19 -5 -7 -10 -19
-10 -27 -1 -21 -7 -43 -13 -55 -4 -5 -5 -18 -4 -27 2 -10 0 -18 -5 -18 -4 0
-7 13 -6 29 0 16 3 28 7 26 3 -2 6 2 6 10 0 8 -6 16 -12 19 -8 3 -11 -5 -9
-20 1 -13 -2 -26 -7 -30 -5 -3 -7 -10 -3 -15 3 -6 -2 -17 -12 -25 -14 -10 -15
-14 -4 -12 10 2 16 -7 18 -27 2 -16 8 -36 14 -42 7 -9 7 -13 -1 -13 -6 0 -11
4 -11 9 0 5 -8 12 -17 15 -10 4 -14 4 -10 0 4 -4 1 -14 -6 -22 -9 -13 -9 -14
1 -8 7 4 12 2 12 -4 0 -6 4 -9 8 -6 4 2 8 -11 8 -29 0 -27 -3 -32 -13 -23 -17
13 -17 -4 0 -21 9 -11 9 -13 0 -7 -8 4 -13 1 -13 -8 0 -10 -6 -13 -18 -10 -10
4 -13 2 -7 -3 12 -10 35 -50 35 -60 0 -5 -5 0 -11 10 -6 9 -15 14 -21 11 -6
-4 -8 -2 -4 4 3 6 1 14 -5 18 -8 5 -9 3 -4 -6 6 -10 3 -12 -11 -7 -16 6 -17 5
-4 -6 21 -17 25 -41 5 -33 -10 3 -14 2 -10 -5 4 -6 13 -8 21 -5 9 3 11 0 7
-11 -5 -12 -3 -14 7 -8 9 5 11 4 6 -4 -6 -9 -11 -9 -21 -1 -10 8 -15 8 -20 0
-4 -6 -4 -14 -1 -17 3 -4 6 0 6 8 0 11 2 11 10 -1 12 -19 13 -33 1 -25 -13 8
-24 -12 -15 -27 4 -7 9 -24 10 -38 3 -21 1 -22 -7 -7 -6 9 -7 23 -3 30 5 9 4
9 -5 1 -9 -8 -9 -18 -1 -39 9 -23 8 -26 -5 -22 -8 4 -14 3 -14 -1 3 -20 -2
-33 -11 -27 -6 4 -7 -1 -3 -11 4 -10 2 -15 -4 -11 -5 3 -10 0 -10 -8 0 -9 4
-11 11 -6 10 9 16 11 34 11 4 0 0 5 -8 10 -9 6 -10 10 -3 10 19 0 24 -17 8
-30 -8 -7 -16 -9 -16 -4 -1 5 -4 -4 -8 -21 -4 -17 -13 -29 -20 -27 -7 1 -10
-2 -7 -7 4 -5 3 -11 -1 -14 -9 -4 7 0 35 9 15 5 15 4 -1 -9 -10 -8 -18 -18
-17 -22 1 -4 -2 -10 -6 -13 -4 -4 -4 -2 -1 4 3 6 0 11 -7 11 -8 0 -11 -8 -8
-21 5 -19 4 -20 -14 -7 -18 14 -18 14 -1 -5 15 -16 19 -17 27 -4 6 10 8 6 5
-15 -2 -17 -4 -32 -5 -35 -2 -3 -2 -9 -1 -13 1 -5 -4 -5 -10 -1 -9 5 -10 2 -6
-9 6 -17 -4 -23 -16 -10 -4 3 2 16 13 28 19 20 19 23 5 29 -9 3 -13 2 -10 -4
4 -6 -1 -17 -9 -26 -21 -20 -3 -59 22 -50 15 5 15 5 1 -6 -9 -7 -14 -19 -12
-25 3 -7 1 -13 -4 -13 -12 0 -33 22 -33 34 0 5 6 2 13 -8 9 -13 14 -14 13 -5
0 8 -7 21 -16 30 -16 15 -17 12 -16 -41 1 -45 4 -56 15 -52 10 4 13 0 9 -15
-5 -20 0 -23 44 -24 10 0 18 -7 18 -14 0 -8 -6 -12 -14 -9 -18 7 -30 -12 -15
-22 8 -5 9 -3 4 6 -5 9 -2 10 14 5 14 -4 21 -2 21 6 0 18 10 5 15 -20 2 -12 0
-19 -6 -16 -5 4 -7 11 -4 16 10 15 -1 10 -15 -7 -8 -8 -9 -14 -4 -13 14 3 44
-12 44 -22 0 -6 -10 -5 -22 1 -21 10 -22 10 -5 -4 11 -8 26 -12 35 -9 12 4 9
-3 -8 -22 l-25 -28 25 16 c29 20 52 23 25 4 -14 -11 -15 -16 -5 -22 8 -5 11
-4 6 3 -3 6 1 9 11 8 9 -2 19 -9 22 -17 2 -8 11 -20 20 -27 9 -7 12 -12 6 -11
-23 3 -29 -2 -15 -12 13 -9 13 -10 0 -6 -8 2 -14 12 -12 22 2 10 -1 14 -7 10
-19 -11 -6 -48 17 -50 12 -1 22 3 22 8 0 6 2 8 5 5 3 -3 2 -13 -1 -22 -5 -12
-9 -14 -14 -6 -5 8 -9 7 -13 -4 -4 -9 -1 -15 6 -13 7 1 11 -5 10 -13 -2 -8 6
-21 17 -28 12 -7 20 -8 20 -2 0 5 4 10 8 10 5 0 9 -7 9 -15 0 -8 -4 -12 -9 -9
-4 3 -7 -13 -5 -35 1 -21 4 -39 7 -39 20 1 30 -4 30 -16 0 -14 36 -32 53 -28
4 1 7 -2 7 -8 0 -14 33 -12 50 3 8 6 7 3 -3 -9 -24 -29 -21 -39 5 -14 12 11
26 20 31 20 5 0 -1 -9 -14 -20 -21 -17 -21 -19 -4 -13 11 3 25 10 31 14 6 5
11 3 11 -6 0 -8 -3 -12 -7 -10 -4 2 -16 -3 -26 -11 -19 -15 -19 -15 0 -6 10 5
27 7 38 4 14 -3 17 0 12 12 -3 9 -1 16 5 16 6 0 10 -3 10 -8 -4 -22 2 -42 11
-37 6 4 8 10 5 15 -3 5 0 12 6 16 8 4 9 3 5 -4 -4 -7 -2 -12 3 -12 6 0 11 -7
11 -16 0 -9 -5 -12 -12 -8 -7 5 -8 3 -3 -5 6 -10 11 -9 23 3 13 13 13 17 1 33
-13 17 -13 17 7 0 11 -9 23 -16 25 -15 2 2 -1 -2 -8 -8 -10 -9 -8 -15 9 -30
21 -17 21 -17 8 -1 -12 16 -12 20 1 28 8 5 19 8 24 8 6 0 4 -3 -2 -6 -7 -2
-13 -9 -13 -15 0 -6 12 -2 28 7 15 10 24 14 20 10 -4 -5 -2 -15 5 -23 9 -13 9
-14 0 -8 -8 4 -13 2 -13 -4 0 -7 6 -10 13 -7 6 2 20 -3 31 -12 16 -14 15 -10
-4 24 -19 35 -20 37 -2 16 22 -28 52 -36 65 -18 5 7 6 3 2 -10 -4 -14 -2 -23
5 -23 6 0 9 -4 6 -8 -6 -10 35 -9 51 1 8 5 13 3 13 -7 0 -8 -6 -17 -12 -19
-10 -4 -10 -6 0 -6 7 -1 15 6 18 14 8 21 24 9 18 -13 -4 -11 -3 -13 3 -5 7 9
17 8 43 -8 l35 -20 -24 21 c-31 26 -17 26 28 -2 38 -24 65 -32 55 -17 -3 5
-10 6 -16 3 -7 -5 -8 -2 -3 6 5 9 4 11 -3 6 -8 -5 -10 -2 -6 8 3 9 10 16 16
16 5 0 7 -4 4 -8 -6 -10 31 -43 53 -47 9 -1 15 -8 14 -13 -2 -7 4 -9 14 -5 10
4 14 2 10 -4 -3 -5 0 -10 8 -10 8 0 12 4 9 9 -6 10 10 11 19 1 4 -3 2 -12 -5
-20 -8 -11 -7 -12 6 -7 9 3 16 10 16 15 0 5 3 8 8 8 4 -1 9 0 12 1 20 7 40 7
40 -1 0 -6 5 -7 11 -3 8 4 8 0 0 -15 -9 -17 -9 -21 1 -19 7 2 12 -3 10 -10 -1
-8 2 -11 8 -7 6 3 8 10 5 15 -3 4 4 10 15 13 11 3 23 1 26 -4 3 -5 10 -6 16
-3 6 4 8 2 5 -3 -7 -11 17 -26 43 -28 8 0 20 8 27 20 7 11 12 15 13 10 0 -21
-31 -54 -45 -48 -11 4 -13 0 -8 -13 4 -14 0 -12 -15 6 l-21 25 3 -28 c1 -15 6
-30 11 -35 4 -4 5 -2 2 4 -4 7 3 11 18 11 14 0 22 -4 18 -10 -3 -6 -1 -7 6 -3
6 4 9 11 6 16 -3 4 1 13 9 19 11 9 18 6 35 -16 20 -26 21 -26 9 -3 -7 14 -11
29 -10 33 1 5 -2 6 -8 2 -5 -3 -10 1 -10 10 0 10 6 15 13 12 19 -7 43 8 28 17
-6 4 -11 2 -11 -4 0 -6 -5 -8 -11 -4 -18 11 13 24 33 13 10 -6 15 -16 12 -27
-5 -14 -4 -14 4 -2 7 9 7 18 1 26 -9 11 -2 20 30 39 9 5 12 4 7 -3 -6 -11 0
-14 20 -11 4 0 11 -5 16 -13 8 -10 9 -10 5 2 -2 8 -9 14 -14 13 -5 -1 -9 9 -9
22 0 14 2 22 6 19 3 -3 5 -10 5 -15 0 -5 3 -9 8 -9 4 0 13 0 21 0 10 0 13 7
11 21 -4 17 -2 19 10 9 14 -12 20 -6 15 15 -1 5 2 6 6 2 10 -10 14 -37 6 -35
-11 3 -52 -26 -52 -36 0 -4 6 -3 13 3 8 6 18 7 22 3 5 -4 5 -1 1 6 -4 7 -1 12
8 12 9 0 16 -6 16 -12 0 -10 2 -10 9 0 4 8 7 25 5 39 -2 22 9 25 12 2 1 -5 2
-15 3 -21 1 -8 6 -6 12 5 13 22 30 22 22 0 -3 -12 0 -10 12 5 12 17 20 20 29
13 21 -18 27 1 9 28 -16 25 -16 25 1 12 15 -13 19 -13 27 0 8 10 9 8 4 -8 -4
-14 -2 -23 4 -23 6 0 11 7 11 15 0 8 5 15 11 15 5 0 7 -5 3 -12 -4 -7 -3 -8 4
-4 6 4 9 13 6 20 -3 8 0 17 7 22 8 4 10 3 5 -4 -4 -7 -2 -12 4 -12 6 0 8 -5 4
-12 -4 -7 -3 -8 4 -4 7 4 12 2 12 -5 0 -8 5 -6 13 5 7 9 17 16 22 15 15 -3 45
12 45 23 0 5 -6 6 -12 1 -20 -12 -48 -14 -48 -3 0 6 6 9 13 8 6 -2 11 3 9 11
-2 10 1 12 10 5 18 -14 44 -11 40 5 -1 7 2 10 8 6 7 -4 7 -12 0 -25 -13 -25
-12 -40 1 -17 9 15 13 16 27 6 14 -11 15 -11 5 1 -16 17 -17 34 -2 25 6 -4 22
4 36 16 15 13 23 18 19 12 -4 -8 -1 -13 9 -13 9 0 14 4 11 8 -3 5 1 9 10 9 10
0 12 -7 8 -20 -4 -14 -3 -17 6 -12 7 4 10 19 7 33 -5 24 -4 25 8 9 10 -15 14
-15 18 -3 8 21 47 9 40 -12 -4 -15 -3 -15 6 -2 6 9 7 18 1 24 -6 6 -10 14 -10
19 0 5 7 1 16 -7 8 -9 20 -14 25 -11 5 4 9 0 9 -7 0 -10 2 -10 9 0 4 8 11 13
15 13 11 -2 8 13 -3 17 -6 2 -11 -1 -11 -6 0 -11 -26 -10 -35 1 -3 4 -2 5 1 2
4 -2 19 2 35 10 31 17 52 20 29 5 -12 -8 -9 -10 13 -10 15 0 27 5 27 11 0 5
-4 7 -10 4 -6 -3 -7 1 -3 10 4 13 8 14 14 4 4 -7 19 -13 32 -13 14 -1 23 3 20
8 -4 5 1 7 11 3 10 -4 19 -1 22 8 4 8 10 13 14 10 4 -3 11 2 14 11 3 8 10 13
15 10 5 -3 8 2 7 12 -1 12 5 16 19 14 15 -2 17 -1 6 6 -11 8 -11 10 0 15 8 3
9 6 3 6 -6 1 -17 -6 -24 -14 -7 -8 -18 -15 -24 -15 -6 0 -3 5 7 11 9 6 15 14
12 20 -6 8 16 14 38 10 5 -1 6 3 2 9 -3 6 -10 8 -15 5 -4 -3 -10 1 -13 8 -4
10 2 13 21 10 15 -2 21 0 15 3 -7 3 -13 10 -13 15 0 6 4 8 9 4 5 -3 13 0 17 6
4 7 3 9 -4 5 -6 -3 -13 -2 -17 4 -6 10 6 14 35 11 13 -2 13 -1 0 9 -9 6 -11
13 -5 18 6 4 11 14 13 22 1 10 -2 9 -13 -4 -8 -11 -15 -23 -15 -28 0 -4 -6 -8
-14 -8 -10 0 -5 10 14 31 18 20 33 28 41 24 7 -5 10 -4 6 2 -4 5 3 20 14 31
11 12 16 22 11 22 -5 0 -17 -10 -26 -23 l-16 -22 9 25 c4 14 6 31 4 38 -3 6 0
12 7 12 6 0 8 5 4 12 -5 7 -3 8 6 3 10 -6 12 -4 7 8 -4 11 -2 14 9 10 11 -4
12 -9 3 -19 -8 -9 -8 -14 -1 -14 6 0 14 9 17 20 3 11 11 20 18 20 6 0 2 6 -9
14 -16 12 -17 17 -6 28 11 11 12 10 7 -3 -4 -10 0 -16 9 -16 8 0 18 7 20 14 3
8 2 12 -3 9 -5 -3 -11 0 -14 8 -4 11 1 13 19 10 13 -2 24 0 24 6 0 5 6 9 13 8
9 -2 12 30 12 133 0 106 -3 135 -12 132 -7 -3 -13 0 -13 6 0 6 5 11 10 11 6 0
10 5 10 11 0 6 -5 7 -12 2 -25 -15 -44 -12 -57 10 -13 20 -13 21 2 8 10 -8 17
-9 17 -3 0 6 -8 16 -17 21 -10 6 -13 11 -7 11 17 0 37 -27 29 -39 -3 -7 0 -8
9 -5 20 8 20 14 -1 29 -20 14 -26 45 -10 45 8 0 7 4 -2 9 -8 5 -10 14 -6 21 6
9 4 11 -4 6 -7 -5 -10 -14 -7 -22 3 -8 1 -14 -4 -14 -9 0 -15 31 -11 54 1 4
-4 14 -10 22 -14 17 2 19 19 2 9 -9 12 -9 12 0 0 7 -4 12 -8 12 -13 0 -11 34
2 43 7 5 3 7 -8 5 -15 -2 -20 3 -21 25 -2 36 -22 58 -34 38 -7 -10 -9 -7 -8
12 2 18 5 23 14 16 7 -7 14 -6 19 2 4 8 3 9 -4 5 -15 -9 -15 -1 -2 24 8 15 7
18 -4 14 -16 -6 -17 36 -1 48 6 5 5 8 -3 8 -7 0 -10 5 -7 10 3 6 1 10 -6 10
-10 0 -10 3 -2 11 9 9 8 17 -1 33 -7 11 -12 35 -12 53 1 17 -3 31 -9 30 -5 -1
-9 6 -7 16 2 9 -2 17 -7 17 -5 0 -8 -8 -6 -18 2 -13 -3 -18 -18 -19 -12 0 -16
1 -9 4 6 3 10 9 7 13 -3 5 5 16 17 24 26 18 17 21 -15 5 -18 -9 -20 -9 -10 1
14 15 5 43 -11 33 -6 -4 -5 1 2 10 8 9 10 22 6 29 -5 10 -4 11 7 1 7 -7 18
-13 24 -13 5 0 2 5 -8 11 -15 9 -16 13 -6 27 11 14 11 15 -1 5 -16 -15 -34
-17 -25 -4 3 6 -3 15 -12 21 -17 11 -17 11 0 6 15 -5 22 4 18 27 0 4 5 7 11 7
7 0 0 8 -15 19 -23 15 -25 20 -13 24 9 4 16 1 16 -5 0 -6 3 -8 6 -5 9 8 -15
37 -30 37 -6 0 -4 -5 4 -10 13 -8 13 -10 -1 -10 -9 0 -20 7 -23 16 -3 8 -2 12
4 9 6 -3 10 -1 10 4 0 6 3 10 8 10 22 -4 23 4 2 26 -12 13 -27 22 -31 19 -5
-3 -9 0 -9 6 0 7 6 10 14 7 8 -3 17 0 19 7 4 9 -3 12 -19 10 -16 -1 -22 2 -17
9 4 7 8 15 8 19 0 3 4 10 9 15 5 4 6 3 3 -3 -4 -7 0 -15 8 -18 13 -4 13 -2 5
14 -7 12 -16 17 -27 13 -11 -4 -14 -3 -9 5 4 7 2 12 -5 12 -7 0 -2 8 10 19 18
15 19 20 6 25 -8 3 -15 10 -15 16 0 6 5 8 10 5 6 -3 10 -1 10 4 0 6 -4 11 -9
11 -17 0 -23 -20 -11 -35 8 -10 8 -15 -1 -21 -7 -4 -9 -3 -5 4 3 6 2 14 -4 17
-6 4 -8 15 -5 26 4 13 2 18 -7 16 -7 -2 -9 -2 -5 1 4 2 2 11 -5 20 -12 16 -11
16 6 2 18 -13 19 -13 14 0 -3 8 -9 24 -13 35 l-8 20 17 -20 c17 -19 17 -19 5
5 -7 14 -12 27 -12 30 1 3 -2 4 -7 3 -4 -1 -12 10 -19 25 -9 22 -9 24 1 12 7
-8 20 -16 28 -18 10 -1 9 2 -4 13 -11 8 -17 18 -13 21 3 3 1 18 -5 33 -6 14
-11 37 -12 51 -1 18 -7 25 -21 25 -11 0 -25 3 -32 8 -6 4 -14 3 -18 -3z m20
-10 c3 -5 1 -10 -4 -10 -6 0 -11 5 -11 10 0 6 2 10 4 10 3 0 8 -4 11 -10z m45
-9 c0 -6 -4 -12 -8 -15 -5 -3 -9 1 -9 9 0 8 4 15 9 15 4 0 8 -4 8 -9z m-1720
-100 c0 -4 -6 -8 -14 -8 -8 0 -12 6 -9 14 5 13 23 9 23 -6z m-155 -31 c3 -6
-1 -7 -9 -4 -18 7 -21 14 -7 14 6 0 13 -4 16 -10z m235 -28 c0 -5 -7 -9 -15
-9 -8 0 -12 4 -9 9 3 4 9 8 15 8 5 0 9 -4 9 -8z m1655 -1 c3 -5 2 -12 -3 -15
-5 -3 -9 1 -9 9 0 17 3 19 12 6z m-1526 -100 c-1 -13 -2 -13 -6 2 -2 9 -9 17
-14 17 -5 0 -9 5 -9 11 0 8 5 8 15 -1 8 -7 14 -20 14 -29z m1176 19 c3 -5 1
-10 -5 -10 -6 0 -9 -4 -6 -8 3 -5 -1 -9 -9 -9 -10 0 -12 4 -5 12 5 7 7 15 3
18 -3 4 -1 7 5 7 6 0 14 -4 17 -10z m-1100 -58 c-15 -15 -32 -9 -28 9 4 15 8
17 19 8 8 -7 12 -14 9 -17z m-472 -35 c4 3 7 1 7 -5 0 -6 -8 -10 -18 -9 -10 0
-19 7 -19 14 0 9 4 10 12 3 7 -5 15 -7 18 -3z m557 -32 c0 -5 -5 -3 -10 5 -5
8 -10 20 -10 25 0 6 5 3 10 -5 5 -8 10 -19 10 -25z m790 -15 c0 -5 -2 -10 -4
-10 -3 0 -8 5 -11 10 -3 6 -1 10 4 10 6 0 11 -4 11 -10z m24 -18 c3 -5 -1 -9
-9 -9 -8 0 -12 4 -9 9 3 4 7 8 9 8 2 0 6 -4 9 -8z m-34 -16 c0 -2 -8 -10 -17
-17 -16 -13 -17 -12 -4 4 13 16 21 21 21 13z m678 -39 c8 -9 4 -13 -18 -13
-23 -1 -26 1 -17 12 15 17 22 17 35 1z m-1304 -26 c-2 -3 -12 3 -22 13 -16 17
-16 18 5 5 12 -7 20 -15 17 -18z m56 -10 c3 -2 -3 -1 -12 2 -9 3 -19 1 -21 -6
-3 -7 -4 -2 -4 10 1 21 7 20 37 -6z m-810 -1 c-24 -15 -36 -11 -14 4 10 8 21
12 24 10 2 -3 -2 -9 -10 -14z m2076 -76 c2 -12 -1 -13 -12 -3 -7 6 -11 16 -8
21 7 11 17 3 20 -18z m-1027 -47 c-8 -14 -13 -16 -25 -7 -17 15 -12 26 14 26
17 0 19 -4 11 -19z m-1059 -1 c0 -3 -4 -8 -10 -11 -5 -3 -10 -1 -10 4 0 6 5
11 10 11 6 0 10 -2 10 -4z m990 0 c0 -3 -4 -8 -10 -11 -5 -3 -10 -1 -10 4 0 6
5 11 10 11 6 0 10 -2 10 -4z m-1050 -131 c5 3 11 1 14 -4 4 -5 -2 -8 -11 -7
-9 2 -18 8 -19 15 -1 6 0 7 3 1 2 -5 9 -8 13 -5z m2205 -75 c-2 -18 3 -31 12
-35 12 -4 12 -9 4 -19 -6 -7 -8 -16 -5 -19 10 -10 12 -67 3 -61 -5 3 -7 10 -4
15 4 5 0 9 -7 9 -11 0 -10 2 0 9 11 6 10 10 -4 15 -13 5 -15 9 -6 18 15 15 16
32 2 23 -6 -4 -9 -1 -8 7 2 7 -3 12 -11 10 -12 -3 -12 0 -1 12 10 13 10 16 -1
16 -8 0 -5 6 7 15 18 14 18 14 -6 15 -23 1 -23 2 -5 9 24 10 33 -2 30 -39z
m-2231 -138 c3 -5 -1 -9 -9 -9 -8 0 -12 4 -9 9 3 4 7 8 9 8 2 0 6 -4 9 -8z
m2266 -27 c0 -2 -9 -3 -19 -2 -11 0 -18 5 -15 9 4 6 34 0 34 -7z m14 -82 c3
-14 -2 -19 -17 -20 -19 -2 -20 0 -6 10 9 7 14 19 11 27 -3 8 -2 12 2 9 4 -4 8
-15 10 -26z m-2321 -38 c-3 -9 -8 -14 -10 -11 -3 3 -2 9 2 15 9 16 15 13 8 -4z
m2331 -4 c3 -4 -1 -16 -8 -26 -10 -14 -15 -15 -21 -5 -5 8 -4 11 2 7 6 -4 13
0 16 7 4 9 -1 17 -11 19 -16 4 -16 5 0 6 9 0 19 -3 22 -8z m-7 -76 c0 -8 -4
-12 -9 -9 -5 3 -6 10 -3 15 9 13 12 11 12 -6z m98 -222 c1 -18 -3 -33 -7 -33
-4 0 -8 9 -8 21 0 11 -5 17 -10 14 -6 -4 -9 -1 -8 6 2 7 -2 13 -9 14 -6 0 -15
4 -20 9 -5 5 -3 6 5 2 7 -4 12 -2 12 6 0 10 2 10 9 -1 6 -9 11 -10 15 -2 4 6
0 14 -8 17 -9 3 -13 10 -10 16 10 16 39 -35 39 -69z m-2525 -149 c0 -2 -7 -1
-16 3 -14 5 -14 3 -3 -16 8 -11 17 -21 22 -21 4 0 5 4 2 10 -3 5 0 7 9 4 12
-5 13 -9 3 -19 -14 -14 -37 -9 -37 9 0 7 -5 17 -12 24 -6 6 -13 18 -14 27 -2
12 1 12 22 -2 13 -8 24 -17 24 -19z m2527 -35 c1 -12 -1 -19 -4 -15 -3 3 -12
1 -19 -5 -8 -7 -14 -7 -19 1 -3 6 -11 7 -17 4 -6 -4 -8 -2 -4 4 3 6 15 9 25 7
11 -2 22 3 25 11 8 20 11 18 13 -7z m-2443 -85 c3 -8 2 -12 -4 -9 -6 3 -10 10
-10 16 0 14 7 11 14 -7z m98 -226 c-6 -6 -12 -6 -17 3 -6 8 -4 10 5 4 9 -5 10
-1 6 16 -6 21 -6 22 5 6 7 -13 8 -22 1 -29z m34 -81 c-6 -5 -2 -7 12 -4 12 3
20 1 17 -3 -8 -14 7 -41 20 -37 6 3 12 -1 12 -9 0 -19 -2 -18 -39 18 -32 31
-55 85 -24 56 10 -10 11 -15 2 -21z m2050 -43 c-11 -8 -24 -14 -29 -14 -4 0
-6 -3 -4 -7 3 -5 -7 -9 -21 -10 -27 -1 -27 -1 -4 11 12 7 19 15 15 20 -4 4 1
4 11 0 12 -4 17 -4 13 2 -3 6 4 11 16 11 21 2 22 1 3 -13z m-1941 -24 c-3 -5
-12 -10 -18 -10 -7 0 -6 4 3 10 19 12 23 12 15 0z m1541 -79 c-4 -5 0 -11 6
-14 7 -3 3 -4 -9 -4 -17 1 -19 4 -11 14 12 15 22 18 14 4z m-1216 -11 c0 -5
-5 -10 -11 -10 -5 0 -7 5 -4 10 3 6 8 10 11 10 2 0 4 -4 4 -10z m73 -43 c-2
-4 -5 -7 -8 -7 -3 0 -9 0 -15 0 -5 0 -10 4 -10 9 0 5 8 8 18 7 9 -2 16 -6 15
-9z m62 -5 c-3 -3 -11 0 -18 7 -9 10 -8 11 6 5 10 -3 15 -9 12 -12z m954 -6
c7 -8 8 -17 3 -20 -6 -3 -12 3 -15 14 -6 24 -4 25 12 6z m-929 -10 c0 -3 -4
-8 -10 -11 -5 -3 -10 -1 -10 4 0 6 5 11 10 11 6 0 10 -2 10 -4z m57 -28 c-3
-8 -6 -5 -6 6 -1 11 2 17 5 13 3 -3 4 -12 1 -19z m689 -26 c-18 -16 -18 -16
-6 6 6 13 14 21 18 18 3 -4 -2 -14 -12 -24z m67 8 c10 -12 9 -12 -4 -2 -10 8
-19 8 -26 1 -6 -6 -10 -5 -10 5 0 17 23 15 40 -4z m-663 -10 c0 -5 -2 -10 -4
-10 -3 0 -8 5 -11 10 -3 6 -1 10 4 10 6 0 11 -4 11 -10z m51 -4 c6 15 8 15 8
3 1 -9 -2 -19 -5 -22 -9 -8 -44 11 -44 24 0 6 8 3 17 -7 16 -15 17 -15 24 2z
m39 -18 c0 6 4 12 8 12 5 0 9 -6 9 -14 0 -18 -30 -14 -35 5 -3 11 -1 11 7 -1
7 -10 11 -11 11 -2z m91 -41 c-10 -9 -11 -8 -5 6 3 10 9 15 12 12 3 -3 0 -11
-7 -18z"/>
<path d="M2565 1081 c-3 -5 -2 -12 3 -15 5 -3 9 1 9 9 0 17 -3 19 -12 6z"/>
<path d="M358 2453 c7 -3 16 -2 19 1 4 3 -2 6 -13 5 -11 0 -14 -3 -6 -6z"/>
<path d="M2147 2438 c7 -8 10 -18 6 -21 -3 -4 -1 -7 6 -7 7 0 9 -5 5 -12 -4
-7 -3 -8 4 -4 13 8 1 40 -21 52 -9 6 -9 5 0 -8z"/>
<path d="M361 2421 c-11 -7 -11 -9 0 -14 12 -5 12 -7 1 -15 -11 -8 -11 -10 0
-15 10 -3 14 3 14 24 0 16 0 29 0 29 -1 0 -7 -4 -15 -9z"/>
<path d="M343 2291 c1 -15 4 -17 14 -9 7 5 10 14 7 19 -10 16 -23 9 -21 -10z"/>
<path d="M2307 2236 c-4 -10 -1 -13 9 -9 15 6 19 23 5 23 -5 0 -11 -7 -14 -14z"/>
<path d="M1844 2214 c-18 -14 -18 -15 4 -4 12 6 22 13 22 15 0 8 -5 6 -26 -11z"/>
<path d="M2325 2140 c-3 -5 -2 -10 4 -10 5 0 13 5 16 10 3 6 2 10 -4 10 -5 0
-13 -4 -16 -10z"/>
<path d="M1717 2121 c5 -20 33 -19 33 2 0 6 -3 7 -7 4 -3 -4 -12 -2 -19 4 -9
8 -11 5 -7 -10z"/>
<path d="M271 2087 c-13 -21 -12 -21 5 -5 10 10 16 20 13 22 -3 3 -11 -5 -18
-17z"/>
<path d="M1643 2068 c1 -7 -4 -12 -11 -10 -8 1 -11 -2 -7 -8 5 -8 11 -8 21 1
7 6 11 15 8 20 -8 13 -14 11 -11 -3z"/>
<path d="M241 1954 c0 -11 3 -14 6 -6 3 7 2 16 -1 19 -3 4 -6 -2 -5 -13z"/>
<path d="M1430 1946 c0 -2 8 -10 18 -17 15 -13 16 -12 3 4 -13 16 -21 21 -21
13z"/>
<path d="M1155 1930 c3 -5 8 -10 11 -10 2 0 4 5 4 10 0 6 -5 10 -11 10 -5 0
-7 -4 -4 -10z"/>
<path d="M1181 1924 c0 -11 3 -14 6 -6 3 7 2 16 -1 19 -3 4 -6 -2 -5 -13z"/>
<path d="M1383 1902 c1 -12 6 -18 15 -15 7 3 10 9 5 12 -4 3 -11 10 -15 15 -4
4 -6 -1 -5 -12z"/>
<path d="M2385 1860 c-3 -6 1 -7 9 -4 18 7 21 14 7 14 -6 0 -13 -4 -16 -10z"/>
<path d="M220 1836 c0 -2 7 -7 16 -10 8 -3 12 -2 9 4 -6 10 -25 14 -25 6z"/>
<path d="M2407 1776 c-4 -10 -1 -13 8 -9 8 3 12 9 9 14 -7 12 -11 11 -17 -5z"/>
<path d="M171 1599 c-1 -9 5 -19 12 -22 8 -3 14 1 14 9 0 7 -4 11 -8 8 -4 -2
-10 2 -12 8 -4 8 -6 7 -6 -3z"/>
<path d="M153 1550 c-2 -19 8 -26 20 -14 7 7 -2 34 -12 34 -4 0 -7 -9 -8 -20z"/>
<path d="M90 1300 c0 -5 5 -10 11 -10 5 0 7 5 4 10 -3 6 -8 10 -11 10 -2 0 -4
-4 -4 -10z"/>
<path d="M2515 1270 c-3 -6 1 -7 9 -4 18 7 21 14 7 14 -6 0 -13 -4 -16 -10z"/>
<path d="M2570 1186 c0 -2 7 -7 16 -10 8 -3 12 -2 9 4 -6 10 -25 14 -25 6z"/>
<path d="M2580 820 c-9 -6 -10 -10 -3 -10 6 0 15 5 18 10 8 12 4 12 -15 0z"/>
<path d="M2465 720 c-3 -5 -1 -10 4 -10 6 0 11 5 11 10 0 6 -2 10 -4 10 -3 0
-8 -4 -11 -10z"/>
<path d="M160 685 c-10 -12 -10 -15 4 -15 9 0 16 7 16 15 0 8 -2 15 -4 15 -2
0 -9 -7 -16 -15z"/>
<path d="M210 526 c0 -2 7 -7 16 -10 8 -3 12 -2 9 4 -6 10 -25 14 -25 6z"/>
<path d="M2255 360 c3 -5 8 -10 11 -10 2 0 4 5 4 10 0 6 -5 10 -11 10 -5 0 -7
-4 -4 -10z"/>
<path d="M2063 325 c0 -8 4 -12 9 -9 5 3 6 10 3 15 -9 13 -12 11 -12 -6z"/>
<path d="M615 309 c-4 -6 -5 -12 -2 -15 2 -3 7 2 10 11 7 17 1 20 -8 4z"/>
<path d="M1967 289 c4 -13 8 -18 11 -10 2 7 -1 18 -6 23 -8 8 -9 4 -5 -13z"/>
<path d="M710 270 c6 -11 13 -20 16 -20 2 0 0 9 -6 20 -6 11 -13 20 -16 20 -2
0 0 -9 6 -20z"/>
<path d="M1145 150 c3 -6 1 -10 -6 -10 -7 0 -10 -3 -6 -6 3 -3 13 -2 22 4 16
8 16 9 1 15 -10 4 -15 3 -11 -3z"/>
<path d="M1430 140 c0 -6 7 -10 15 -10 8 0 15 2 15 4 0 2 -7 6 -15 10 -8 3
-15 1 -15 -4z"/>
<path d="M1221 104 c-6 -15 -10 -29 -7 -31 2 -2 7 5 11 16 3 12 11 21 17 21 5
0 8 -6 5 -12 -19 -48 -20 -51 -7 -46 17 5 22 54 6 67 -10 8 -16 4 -25 -15z"/>
<path d="M1380 80 c0 -5 5 -10 11 -10 5 0 7 -5 3 -12 -4 -7 -3 -8 5 -4 9 6 9
11 0 22 -14 17 -19 18 -19 4z"/>
<path d="M1335 61 c-3 -5 -1 -12 5 -16 5 -3 10 1 10 9 0 18 -6 21 -15 7z"/>
</g>
</svg>
